<?xml version="1.0" encoding="utf-8"?>
<!-- Generator: Adobe Illustrator 17.0.2, SVG Export Plug-In . SVG Version: 6.00 Build 0)  -->
<!DOCTYPE svg PUBLIC "-//W3C//DTD SVG 1.1//EN" "http://www.w3.org/Graphics/SVG/1.1/DTD/svg11.dtd">
<svg version="1.1" id="Layer_1" xmlns="http://www.w3.org/2000/svg" xmlns:xlink="http://www.w3.org/1999/xlink" x="0px" y="0px"
	 width="25px" height="50px" viewBox="0 0 25 50" enable-background="new 0 0 25 50" xml:space="preserve">
<path fill="#FFFFFF" d="M16.667,16.667v-4.961c0-2.24,0.495-3.372,3.971-3.372H25V0h-7.279C8.802,0,5.859,4.089,5.859,11.107v5.56H0
	V25h5.859v25h10.807V25h7.344L25,16.667H16.667z M22.161,22.917H16.81h-2.227v2.018v22.982h-6.64V24.935v-2.018h-1.94h-3.92V18.75
	h3.919h1.94v-2.148v-5.495c0-3.19,0.703-5.365,2.018-6.745c1.458-1.562,4.049-2.279,7.76-2.279h5.195V6.25h-2.279
	c-1.562,0-3.581,0.143-4.831,1.523c-1.055,1.172-1.224,2.617-1.224,3.919v4.896v2.161h2.227h5.846L22.161,22.917z"/>
</svg>
