<?xml version="1.0" encoding="utf-8"?>
<!-- Generator: Adobe Illustrator 17.0.2, SVG Export Plug-In . SVG Version: 6.00 Build 0)  -->
<!DOCTYPE svg PUBLIC "-//W3C//DTD SVG 1.1//EN" "http://www.w3.org/Graphics/SVG/1.1/DTD/svg11.dtd">
<svg version="1.1" id="Layer_1" xmlns="http://www.w3.org/2000/svg" xmlns:xlink="http://www.w3.org/1999/xlink" x="0px" y="0px"
	 width="50.004px" height="50px" viewBox="0 0 50.004 50" enable-background="new 0 0 50.004 50" xml:space="preserve">
<g>
	<g>
		<path fill="#FFFFFF" d="M23.978,26H6.884v-8l22.625,0.219l-2.406,2.031l-2.312,3.944L23.978,26z M8.884,24h15.563l0.125-1.368
			l0.75-0.716L27.523,20H8.884V24z"/>
	</g>
	<g id="XMLID_1_">
		<g>
			<path fill="#FFFFFF" d="M49.77,2.03c0.48,1.16,0.21,2.41-0.71,3.33l-2.95,2.95c0.4-0.41,0.4-1.07,0-1.47L45.37,6.1l2.21-2.21
				C47.91,3.56,48,3.2,47.84,2.83c-0.17-0.43-0.62-0.75-1.03-0.75c-0.24,0-0.48,0.12-0.7,0.34L43.9,4.63l-0.74-0.74
				c-0.4-0.41-1.06-0.41-1.47,0l2.95-2.95C45.25,0.33,46.01,0,46.81,0C48.07,0,49.26,0.82,49.77,2.03z"/>
			<path fill="#FFFFFF" d="M46.11,6.84c0.4,0.4,0.4,1.06,0,1.47c-0.2,0.2-0.47,0.3-0.74,0.3c-0.26,0-0.53-0.1-0.74-0.3L43.9,7.57
				l1.47-1.47L46.11,6.84z"/>
			<path fill="#FFFFFF" d="M45.37,8.61c-0.26,0-0.53-0.1-0.74-0.3L43.9,7.57L27.81,23.66l-2.94,1.47l1.47-2.95L42.43,6.1l-0.74-0.74
				c-0.41-0.4-0.41-1.06,0-1.47L24.75,20.83c-0.08,0.08-0.15,0.17-0.2,0.27L21.61,27c-0.2,0.4-0.13,0.88,0.19,1.2
				c0.2,0.2,0.47,0.3,0.74,0.3c0.16,0,0.32-0.03,0.46-0.11l5.9-2.94c0.1-0.05,0.19-0.12,0.27-0.2L46.11,8.31
				C45.91,8.51,45.64,8.61,45.37,8.61z"/>
			
				<rect x="42.861" y="5.061" transform="matrix(0.7071 -0.7071 0.7071 0.7071 8.5447 32.8286)" fill="#FFFFFF" width="2.079" height="2.079"/>
			<path fill="#FFFFFF" d="M43.9,4.63L42.43,6.1l-0.74-0.74c-0.41-0.4-0.41-1.06,0-1.47s1.07-0.41,1.47,0L43.9,4.63z"/>
			<path fill="#FFFFFF" d="M38.54,25v25H0V4.17h30.21c0.57,0,1.04,0.46,1.04,1.04c0,0.57-0.47,1.04-1.04,1.04H2.08v41.67h34.38V25
				c0-0.58,0.46-1.04,1.04-1.04C38.07,23.96,38.54,24.42,38.54,25z"/>
		</g>
		<g>
		</g>
	</g>
	<g>
		<path fill="#FFFFFF" d="M30.884,38h-24v-8h24V38z M8.884,36h20v-4h-20V36z"/>
	</g>
</g>
<g>
</g>
<g>
</g>
<g>
</g>
<g>
</g>
<g>
</g>
<g>
</g>
<g>
</g>
<g>
</g>
<g>
</g>
<g>
</g>
<g>
</g>
<g>
</g>
<g>
</g>
<g>
</g>
<g>
</g>
</svg>
