<?xml version="1.0" encoding="utf-8"?>
<!-- Generator: Adobe Illustrator 17.0.2, SVG Export Plug-In . SVG Version: 6.00 Build 0)  -->
<!DOCTYPE svg PUBLIC "-//W3C//DTD SVG 1.1//EN" "http://www.w3.org/Graphics/SVG/1.1/DTD/svg11.dtd">
<svg version="1.1" id="Layer_1" xmlns="http://www.w3.org/2000/svg" xmlns:xlink="http://www.w3.org/1999/xlink" x="0px" y="0px"
	 width="50px" height="50px" viewBox="0 0 50 50" enable-background="new 0 0 50 50" xml:space="preserve">
<g id="Expanded_1_">
	<g>
		<g>
			<polygon fill="#FFFFFF" points="50,50 11.458,50 11.458,47.917 47.917,47.917 47.917,11.458 50,11.458 			"/>
		</g>
		<g>
			<polygon fill="#FFFFFF" points="45.833,45.833 5.208,45.833 5.208,43.75 43.75,43.75 43.75,5.208 45.833,5.208 			"/>
		</g>
		<g>
			<path fill="#FFFFFF" d="M39.583,2.083v37.5h-37.5v-37.5H39.583 M41.667,0H0v41.667h41.667V0L41.667,0z"/>
		</g>
		<g>
			<path fill="#FFFFFF" d="M10.268,32.828l-1.786-1.072l6.25-10.417c0.174-0.289,0.477-0.477,0.812-0.502
				c0.341-0.029,0.666,0.113,0.88,0.372l4.316,5.178l7.559-11.34c0.217-0.325,0.598-0.5,0.985-0.457
				c0.389,0.045,0.719,0.303,0.856,0.67l6.25,16.667l-1.951,0.731l-5.535-14.763l-7.205,10.807
				c-0.182,0.274-0.483,0.445-0.811,0.463c-0.327,0.014-0.646-0.121-0.855-0.373l-4.27-5.123L10.268,32.828z"/>
		</g>
		<g>
			<path fill="#FFFFFF" d="M12.5,14.583c-2.298,0-4.167-1.869-4.167-4.167S10.202,6.25,12.5,6.25s4.167,1.869,4.167,4.167
				S14.798,14.583,12.5,14.583z M12.5,8.333c-1.149,0-2.083,0.934-2.083,2.083S11.351,12.5,12.5,12.5s2.083-0.934,2.083-2.083
				S13.649,8.333,12.5,8.333z"/>
		</g>
		<g>
			<rect x="0" y="31.25" fill="#FFFFFF" width="41.667" height="2.083"/>
		</g>
	</g>
</g>
<g>
</g>
<g>
</g>
<g>
</g>
<g>
</g>
<g>
</g>
<g>
</g>
<g>
</g>
<g>
</g>
<g>
</g>
<g>
</g>
<g>
</g>
<g>
</g>
<g>
</g>
<g>
</g>
<g>
</g>
</svg>
