<?xml version="1.0" encoding="utf-8"?>
<!-- Generator: Adobe Illustrator 17.0.2, SVG Export Plug-In . SVG Version: 6.00 Build 0)  -->
<!DOCTYPE svg PUBLIC "-//W3C//DTD SVG 1.1//EN" "http://www.w3.org/Graphics/SVG/1.1/DTD/svg11.dtd">
<svg version="1.1" id="Layer_1" xmlns="http://www.w3.org/2000/svg" xmlns:xlink="http://www.w3.org/1999/xlink" x="0px" y="0px"
	 width="33.502px" height="50px" viewBox="0 0 33.502 50" enable-background="new 0 0 33.502 50" xml:space="preserve">
<g id="Expanded_2_">
	<g>
		<g>
			<path fill="#FFFFFF" d="M16.751,50l-0.862-1.247C15.241,47.814,0,25.649,0,16.751C0,7.515,7.515,0,16.751,0
				s16.751,7.515,16.751,16.751c0,8.898-15.241,31.063-15.889,32.002L16.751,50z M16.751,2.094c-8.082,0-14.657,6.575-14.657,14.657
				c0,7.105,11.396,24.66,14.657,29.538c3.261-4.878,14.657-22.432,14.657-29.538C31.408,8.669,24.833,2.094,16.751,2.094z"/>
		</g>
		<g>
			<path fill="#FFFFFF" d="M16.751,24.079c-4.04,0-7.328-3.287-7.328-7.328s3.288-7.328,7.328-7.328s7.328,3.287,7.328,7.328
				S20.791,24.079,16.751,24.079z M16.751,11.516c-2.886,0-5.235,2.348-5.235,5.235s2.348,5.235,5.235,5.235
				s5.235-2.348,5.235-5.235S19.637,11.516,16.751,11.516z"/>
		</g>
	</g>
</g>
<g>
</g>
<g>
</g>
<g>
</g>
<g>
</g>
<g>
</g>
<g>
</g>
<g>
</g>
<g>
</g>
<g>
</g>
<g>
</g>
<g>
</g>
<g>
</g>
<g>
</g>
<g>
</g>
<g>
</g>
</svg>
