<?xml version="1.0" encoding="utf-8"?>
<!-- Generator: Adobe Illustrator 17.0.2, SVG Export Plug-In . SVG Version: 6.00 Build 0)  -->
<!DOCTYPE svg PUBLIC "-//W3C//DTD SVG 1.1//EN" "http://www.w3.org/Graphics/SVG/1.1/DTD/svg11.dtd">
<svg version="1.1" id="Layer_1" xmlns="http://www.w3.org/2000/svg" xmlns:xlink="http://www.w3.org/1999/xlink" x="0px" y="0px"
	 width="46px" height="44px" viewBox="0 0 46 44" enable-background="new 0 0 46 44" xml:space="preserve">
<g>
	<path fill="#FFFFFF" d="M44,2v7H2V2H44 M46,0H0v11h46V0L46,0z"/>
	<path fill="#FFFFFF" d="M44,16v4H18v-4H44 M46,14H16v8h30V14L46,14z"/>
	<path fill="#FFFFFF" d="M44,27v4H18v-4H44 M46,25H16v8h30V25L46,25z"/>
	<path fill="#FFFFFF" d="M44,38v4H18v-4H44 M46,36H16v8h30V36L46,36z"/>
</g>
<g>
</g>
<g>
</g>
<g>
</g>
<g>
</g>
<g>
</g>
<g>
</g>
<g>
</g>
<g>
</g>
<g>
</g>
<g>
</g>
<g>
</g>
<g>
</g>
<g>
</g>
<g>
</g>
<g>
</g>
</svg>
