<?xml version="1.0" encoding="utf-8"?>
<!-- Generator: Adobe Illustrator 17.0.2, SVG Export Plug-In . SVG Version: 6.00 Build 0)  -->
<!DOCTYPE svg PUBLIC "-//W3C//DTD SVG 1.1//EN" "http://www.w3.org/Graphics/SVG/1.1/DTD/svg11.dtd">
<svg version="1.1" id="Layer_1" xmlns="http://www.w3.org/2000/svg" xmlns:xlink="http://www.w3.org/1999/xlink" x="0px" y="0px"
	 width="40px" height="50.683px" viewBox="0 0 40 50.683" enable-background="new 0 0 40 50.683" xml:space="preserve">
<g id="Expanded">
	<g>
		<g>
			<path fill="#FFFFFF" d="M40,40H0V0h40V40z M1.667,38.333h36.667V1.667H1.667V38.333z"/>
		</g>
		<g>
			<rect x="0.833" y="28.833" fill="#FFFFFF" width="38.333" height="1.667"/>
		</g>
		<g>
			<path fill="#FFFFFF" d="M15.833,15.5h-5c-1.838,0-3.333-1.495-3.333-3.333c0-1.936,1.685-3.502,3.627-3.32
				C11.812,6.864,13.672,5.5,15.833,5.5c2.758,0,5,2.242,5,5S18.591,15.5,15.833,15.5z M10.833,10.5
				c-0.919,0-1.667,0.748-1.667,1.667c0,0.919,0.748,1.667,1.667,1.667h5c1.838,0,3.333-1.495,3.333-3.333s-1.495-3.333-3.333-3.333
				c-1.638,0-3.017,1.18-3.278,2.806l-0.163,1.018l-0.961-0.373C11.231,10.539,11.03,10.5,10.833,10.5z"/>
		</g>
		<g>
			<path fill="#FFFFFF" d="M35.921,30.039l-5.894-11.788c-0.334-0.668-1.007-1.084-1.754-1.084c-0.695,0-1.344,0.373-1.695,0.973
				l-5.024,8.613c-0.145,0.248-0.407,0.403-0.694,0.413c-0.283,0.023-0.558-0.131-0.718-0.369c-0.032-0.047-3.142-4.63-6.807-4.63
				c-2.955,0-5.857,5.638-6.726,7.81L5.06,29.358c0.363-0.907,3.675-8.858,8.273-8.858c3.346,0,6.113,2.773,7.408,4.337l4.396-7.537
				c0.648-1.111,1.849-1.8,3.134-1.8c1.383,0,2.627,0.768,3.246,2.006l5.894,11.788L35.921,30.039z"/>
		</g>
	</g>
</g>
<g>
	<path fill="#FFFFFF" d="M12.593,50.683c-1.488,0-2.697-1.21-2.697-2.697s1.21-2.697,2.697-2.697s2.697,1.21,2.697,2.697
		S14.081,50.683,12.593,50.683z M12.593,46.367c-0.892,0-1.618,0.726-1.618,1.618c0,0.892,0.726,1.618,1.618,1.618
		s1.618-0.726,1.618-1.618C14.212,47.093,13.486,46.367,12.593,46.367z"/>
</g>
<circle fill="#FFFFFF" cx="20.146" cy="47.986" r="2.697"/>
<g>
	<path fill="#FFFFFF" d="M27.698,50.683c-1.488,0-2.697-1.21-2.697-2.697s1.21-2.697,2.697-2.697c1.488,0,2.697,1.21,2.697,2.697
		S29.186,50.683,27.698,50.683z M27.698,46.367c-0.892,0-1.618,0.726-1.618,1.618c0,0.892,0.726,1.618,1.618,1.618
		c0.892,0,1.618-0.726,1.618-1.618C29.317,47.093,28.591,46.367,27.698,46.367z"/>
</g>
<g>
</g>
<g>
</g>
<g>
</g>
<g>
</g>
<g>
</g>
<g>
</g>
<g>
</g>
<g>
</g>
<g>
</g>
<g>
</g>
<g>
</g>
<g>
</g>
<g>
</g>
<g>
</g>
<g>
</g>
</svg>
