<?xml version="1.0" encoding="utf-8"?>
<!-- Generator: Adobe Illustrator 17.0.2, SVG Export Plug-In . SVG Version: 6.00 Build 0)  -->
<!DOCTYPE svg PUBLIC "-//W3C//DTD SVG 1.1//EN" "http://www.w3.org/Graphics/SVG/1.1/DTD/svg11.dtd">
<svg version="1.1" id="Layer_1" xmlns="http://www.w3.org/2000/svg" xmlns:xlink="http://www.w3.org/1999/xlink" x="0px" y="0px"
	 width="49.156px" height="40px" viewBox="0 0 49.156 40" enable-background="new 0 0 49.156 40" xml:space="preserve">
<path fill="#FFFFFF" d="M34.031,1.667c2.323,0,4.562,0.969,6.146,2.667l0.635,0.677l0.906-0.177
	c0.469-0.094,0.927-0.198,1.385-0.323C43,4.656,42.51,5.146,41.958,5.635c-0.469,0.417-1.854,1.719-1.854,1.719
	s1.354,0.427,2.198,0.521c0.844,0.094,1.812-0.063,1.969-0.083c-0.292,0.24-0.812,0.604-1.125,0.823l-0.729,0.531l0.042,0.896
	c0.021,0.396,0.031,0.812,0.031,1.229c0,3.146-0.615,6.438-1.771,9.531c-1.219,3.25-2.969,6.188-5.208,8.729
	c-2.396,2.719-5.229,4.844-8.448,6.333c-3.521,1.635-7.427,2.458-11.615,2.458c-3.01,0-5.979-0.5-8.802-1.479
	c1.031-0.198,2.042-0.479,3.031-0.823c2.26-0.792,4.365-1.948,6.26-3.438l3.677-2.885l-4.677-0.083
	c-2.719-0.052-5.177-1.396-6.698-3.531c0.76-0.052,1.51-0.187,2.24-0.385l6.323-2.104l-6.427-1.135
	c-3.083-0.615-5.5-2.906-6.385-5.812c0.812,0.208,1.604,0.292,2.49,0.344c0,0,3.312,0.146,5.812-0.01
	c-1.354-0.646-4.833-3.042-4.833-3.042c-2.344-1.573-3.75-4.188-3.75-7.021c0-0.667,0.083-1.333,0.229-1.979
	c2.281,2.333,4.896,4.281,7.823,5.781c3.854,1.99,8.01,3.104,12.354,3.323l2.208,0.115L25.823,12
	c-0.146-0.615-0.219-1.26-0.219-1.927C25.604,5.448,29.385,1.667,34.031,1.667 M34.031,0c-5.573,0-10.083,4.521-10.083,10.094
	c0,0.792,0.083,1.562,0.26,2.302C15.823,11.979,8.385,7.958,3.417,1.844c-0.865,1.49-1.365,3.229-1.365,5.073
	c0,3.5,1.781,6.594,4.49,8.406c-1.656-0.042-3.219-0.5-4.573-1.26c0,0.042,0,0.083,0,0.125c0,4.896,3.479,8.969,8.094,9.896
	c-0.844,0.229-1.74,0.354-2.656,0.354c-0.646,0-1.281-0.062-1.896-0.187c1.281,4.01,5.01,6.927,9.427,7.01
	c-3.448,2.708-7.802,4.323-12.531,4.323c-0.812,0-1.615-0.052-2.406-0.146C4.458,38.333,9.76,40,15.448,40
	c18.563,0,28.708-15.385,28.708-28.729c0-0.438-0.01-0.875-0.031-1.302c1.969-1.427,3.677-3.198,5.031-5.229
	c-1.812,0.802-3.75,1.344-5.792,1.594c2.083-1.25,3.688-3.229,4.438-5.583c-1.948,1.156-4.104,2-6.406,2.448
	C39.552,1.229,36.927,0,34.031,0L34.031,0z"/>
<g>
</g>
<g>
</g>
<g>
</g>
<g>
</g>
<g>
</g>
<g>
</g>
<g>
</g>
<g>
</g>
<g>
</g>
<g>
</g>
<g>
</g>
<g>
</g>
<g>
</g>
<g>
</g>
<g>
</g>
</svg>
