<?xml version="1.0" standalone="no"?><!DOCTYPE svg PUBLIC "-//W3C//DTD SVG 1.1//EN" "http://www.w3.org/Graphics/SVG/1.1/DTD/svg11.dtd"><svg width="100%" height="100%" viewBox="0 0 52 52" version="1.1" xmlns="http://www.w3.org/2000/svg" xmlns:xlink="http://www.w3.org/1999/xlink" xml:space="preserve" style="fill-rule:evenodd;clip-rule:evenodd;stroke-miterlimit:1.41421;"><g><path d="M16.154,29.918l20.099,9.518" style="fill:none;stroke-width:1.86px;stroke:#9c9c9c;"/><path d="M36.549,13.791l-21.098,11.219" style="fill:none;stroke-width:2px;stroke:#9c9c9c;"/><path d="M8.798,36.194c-4.307,0 -7.799,-3.474 -7.799,-7.759c0,-4.285 3.492,-7.759 7.799,-7.759c4.308,0 7.8,3.474 7.8,7.759c0,4.285 -3.492,7.759 -7.8,7.759Z" style="fill:none;stroke-width:2px;stroke:#9c9c9c;"/><path d="M43.202,49.988c-4.308,0 -7.8,-3.474 -7.8,-7.759c0,-4.285 3.492,-7.759 7.8,-7.759c4.307,0 7.799,3.474 7.799,7.759c0,4.285 -3.492,7.759 -7.799,7.759Z" style="fill:none;stroke-width:2px;stroke:#9c9c9c;"/><path d="M43.202,18.09c-4.308,0 -7.8,-3.474 -7.8,-7.759c0,-4.285 3.492,-7.759 7.8,-7.759c4.307,0 7.799,3.474 7.799,7.759c0,4.285 -3.492,7.759 -7.799,7.759Z" style="fill:none;stroke-width:2px;stroke:#9c9c9c;"/></g></svg>